<mxfile host="app.diagrams.net" modified="2023-02-01T12:22:54.730Z" agent="5.0 (Macintosh)" etag="t3KTFo8Kil-Hz-T3HDSe" version="20.8.14" type="github">
  <diagram id="C5RBs43oDa-KdzZeNtuy" name="Page-1">
    <mxGraphModel dx="850" dy="1018" grid="1" gridSize="10" guides="1" tooltips="1" connect="1" arrows="1" fold="1" page="1" pageScale="1" pageWidth="827" pageHeight="1169" math="0" shadow="0">
      <root>
        <mxCell id="WIyWlLk6GJQsqaUBKTNV-0" />
        <mxCell id="WIyWlLk6GJQsqaUBKTNV-1" parent="WIyWlLk6GJQsqaUBKTNV-0" />
        <mxCell id="FHP0kAgqDx-dFsbqrs1T-1" value="&lt;div&gt;Sign up link clicked in navbar&lt;/div&gt;" style="rounded=1;whiteSpace=wrap;html=1;" vertex="1" parent="WIyWlLk6GJQsqaUBKTNV-1">
          <mxGeometry x="80" y="220" width="120" height="60" as="geometry" />
        </mxCell>
        <mxCell id="FHP0kAgqDx-dFsbqrs1T-6" style="edgeStyle=orthogonalEdgeStyle;rounded=0;orthogonalLoop=1;jettySize=auto;html=1;exitX=0.5;exitY=1;exitDx=0;exitDy=0;entryX=0.5;entryY=0;entryDx=0;entryDy=0;" edge="1" parent="WIyWlLk6GJQsqaUBKTNV-1" source="FHP0kAgqDx-dFsbqrs1T-2" target="FHP0kAgqDx-dFsbqrs1T-5">
          <mxGeometry relative="1" as="geometry" />
        </mxCell>
        <mxCell id="FHP0kAgqDx-dFsbqrs1T-7" value="new" style="edgeLabel;html=1;align=center;verticalAlign=middle;resizable=0;points=[];" vertex="1" connectable="0" parent="FHP0kAgqDx-dFsbqrs1T-6">
          <mxGeometry x="0.15" y="1" relative="1" as="geometry">
            <mxPoint x="19" y="-3" as="offset" />
          </mxGeometry>
        </mxCell>
        <mxCell id="FHP0kAgqDx-dFsbqrs1T-2" value="Routes" style="rounded=0;whiteSpace=wrap;html=1;" vertex="1" parent="WIyWlLk6GJQsqaUBKTNV-1">
          <mxGeometry x="280" y="220" width="120" height="60" as="geometry" />
        </mxCell>
        <mxCell id="FHP0kAgqDx-dFsbqrs1T-3" value="" style="endArrow=classic;html=1;rounded=0;exitX=1;exitY=0.5;exitDx=0;exitDy=0;entryX=0;entryY=0.5;entryDx=0;entryDy=0;" edge="1" parent="WIyWlLk6GJQsqaUBKTNV-1" source="FHP0kAgqDx-dFsbqrs1T-1" target="FHP0kAgqDx-dFsbqrs1T-2">
          <mxGeometry width="50" height="50" relative="1" as="geometry">
            <mxPoint x="310" y="340" as="sourcePoint" />
            <mxPoint x="360" y="290" as="targetPoint" />
          </mxGeometry>
        </mxCell>
        <mxCell id="FHP0kAgqDx-dFsbqrs1T-4" value="&lt;div&gt;Get, sign_up&lt;/div&gt;" style="edgeLabel;html=1;align=center;verticalAlign=middle;resizable=0;points=[];" vertex="1" connectable="0" parent="FHP0kAgqDx-dFsbqrs1T-3">
          <mxGeometry x="0.3667" relative="1" as="geometry">
            <mxPoint x="-18" y="-20" as="offset" />
          </mxGeometry>
        </mxCell>
        <mxCell id="FHP0kAgqDx-dFsbqrs1T-9" style="edgeStyle=orthogonalEdgeStyle;rounded=0;orthogonalLoop=1;jettySize=auto;html=1;exitX=0.5;exitY=1;exitDx=0;exitDy=0;entryX=0.5;entryY=0;entryDx=0;entryDy=0;" edge="1" parent="WIyWlLk6GJQsqaUBKTNV-1" source="FHP0kAgqDx-dFsbqrs1T-5" target="FHP0kAgqDx-dFsbqrs1T-8">
          <mxGeometry relative="1" as="geometry" />
        </mxCell>
        <mxCell id="FHP0kAgqDx-dFsbqrs1T-5" value="&lt;div&gt;registrations_controller&lt;/div&gt;" style="rounded=0;whiteSpace=wrap;html=1;" vertex="1" parent="WIyWlLk6GJQsqaUBKTNV-1">
          <mxGeometry x="280" y="320" width="120" height="60" as="geometry" />
        </mxCell>
        <mxCell id="FHP0kAgqDx-dFsbqrs1T-11" style="edgeStyle=orthogonalEdgeStyle;rounded=0;orthogonalLoop=1;jettySize=auto;html=1;exitX=0.5;exitY=1;exitDx=0;exitDy=0;entryX=0.5;entryY=0;entryDx=0;entryDy=0;" edge="1" parent="WIyWlLk6GJQsqaUBKTNV-1" source="FHP0kAgqDx-dFsbqrs1T-8" target="FHP0kAgqDx-dFsbqrs1T-10">
          <mxGeometry relative="1" as="geometry" />
        </mxCell>
        <mxCell id="FHP0kAgqDx-dFsbqrs1T-8" value="Sets a instance variable for user based on parameters specified in user model" style="rounded=1;whiteSpace=wrap;html=1;" vertex="1" parent="WIyWlLk6GJQsqaUBKTNV-1">
          <mxGeometry x="280" y="410" width="120" height="80" as="geometry" />
        </mxCell>
        <mxCell id="FHP0kAgqDx-dFsbqrs1T-10" value="&lt;div&gt;registrations/new.html.erb&lt;/div&gt;&lt;div&gt;(is rendered)&lt;br&gt;&lt;/div&gt;" style="rounded=0;whiteSpace=wrap;html=1;" vertex="1" parent="WIyWlLk6GJQsqaUBKTNV-1">
          <mxGeometry x="270" y="520" width="140" height="75.5" as="geometry" />
        </mxCell>
        <mxCell id="FHP0kAgqDx-dFsbqrs1T-14" style="edgeStyle=orthogonalEdgeStyle;rounded=0;orthogonalLoop=1;jettySize=auto;html=1;exitX=0.5;exitY=0;exitDx=0;exitDy=0;entryX=0.5;entryY=1;entryDx=0;entryDy=0;" edge="1" parent="WIyWlLk6GJQsqaUBKTNV-1" source="FHP0kAgqDx-dFsbqrs1T-12" target="FHP0kAgqDx-dFsbqrs1T-13">
          <mxGeometry relative="1" as="geometry" />
        </mxCell>
        <mxCell id="FHP0kAgqDx-dFsbqrs1T-15" value="Post, sign_up" style="edgeLabel;html=1;align=center;verticalAlign=middle;resizable=0;points=[];" vertex="1" connectable="0" parent="FHP0kAgqDx-dFsbqrs1T-14">
          <mxGeometry x="0.1623" y="1" relative="1" as="geometry">
            <mxPoint x="41" as="offset" />
          </mxGeometry>
        </mxCell>
        <mxCell id="FHP0kAgqDx-dFsbqrs1T-12" value="Form submit button is clicked" style="rounded=1;whiteSpace=wrap;html=1;" vertex="1" parent="WIyWlLk6GJQsqaUBKTNV-1">
          <mxGeometry x="440" y="527.75" width="120" height="60" as="geometry" />
        </mxCell>
        <mxCell id="FHP0kAgqDx-dFsbqrs1T-17" style="edgeStyle=orthogonalEdgeStyle;rounded=0;orthogonalLoop=1;jettySize=auto;html=1;exitX=0.5;exitY=0;exitDx=0;exitDy=0;entryX=0.5;entryY=1;entryDx=0;entryDy=0;" edge="1" parent="WIyWlLk6GJQsqaUBKTNV-1" source="FHP0kAgqDx-dFsbqrs1T-13" target="FHP0kAgqDx-dFsbqrs1T-16">
          <mxGeometry relative="1" as="geometry" />
        </mxCell>
        <mxCell id="FHP0kAgqDx-dFsbqrs1T-18" value="create" style="edgeLabel;html=1;align=center;verticalAlign=middle;resizable=0;points=[];" vertex="1" connectable="0" parent="FHP0kAgqDx-dFsbqrs1T-17">
          <mxGeometry x="0.25" relative="1" as="geometry">
            <mxPoint x="30" y="5" as="offset" />
          </mxGeometry>
        </mxCell>
        <mxCell id="FHP0kAgqDx-dFsbqrs1T-13" value="Routes" style="rounded=0;whiteSpace=wrap;html=1;" vertex="1" parent="WIyWlLk6GJQsqaUBKTNV-1">
          <mxGeometry x="440" y="410" width="120" height="60" as="geometry" />
        </mxCell>
        <mxCell id="FHP0kAgqDx-dFsbqrs1T-21" style="edgeStyle=orthogonalEdgeStyle;rounded=0;orthogonalLoop=1;jettySize=auto;html=1;exitX=0.5;exitY=0;exitDx=0;exitDy=0;entryX=0.5;entryY=1;entryDx=0;entryDy=0;" edge="1" parent="WIyWlLk6GJQsqaUBKTNV-1" source="FHP0kAgqDx-dFsbqrs1T-16" target="FHP0kAgqDx-dFsbqrs1T-20">
          <mxGeometry relative="1" as="geometry" />
        </mxCell>
        <mxCell id="FHP0kAgqDx-dFsbqrs1T-16" value="registrations_controller" style="rounded=0;whiteSpace=wrap;html=1;" vertex="1" parent="WIyWlLk6GJQsqaUBKTNV-1">
          <mxGeometry x="440" y="320" width="120" height="60" as="geometry" />
        </mxCell>
        <mxCell id="FHP0kAgqDx-dFsbqrs1T-19" value="" style="endArrow=none;dashed=1;html=1;dashPattern=1 3;strokeWidth=2;rounded=0;exitX=1;exitY=0.5;exitDx=0;exitDy=0;entryX=0;entryY=0.5;entryDx=0;entryDy=0;" edge="1" parent="WIyWlLk6GJQsqaUBKTNV-1" source="FHP0kAgqDx-dFsbqrs1T-10" target="FHP0kAgqDx-dFsbqrs1T-12">
          <mxGeometry width="50" height="50" relative="1" as="geometry">
            <mxPoint x="420" y="520" as="sourcePoint" />
            <mxPoint x="470" y="470" as="targetPoint" />
          </mxGeometry>
        </mxCell>
        <mxCell id="FHP0kAgqDx-dFsbqrs1T-23" style="edgeStyle=orthogonalEdgeStyle;rounded=0;orthogonalLoop=1;jettySize=auto;html=1;exitX=1;exitY=0.5;exitDx=0;exitDy=0;entryX=0;entryY=0.5;entryDx=0;entryDy=0;" edge="1" parent="WIyWlLk6GJQsqaUBKTNV-1" source="FHP0kAgqDx-dFsbqrs1T-20" target="FHP0kAgqDx-dFsbqrs1T-22">
          <mxGeometry relative="1" as="geometry" />
        </mxCell>
        <mxCell id="FHP0kAgqDx-dFsbqrs1T-20" value="&lt;div&gt;Function creates creates a new user based on the data sumbitted in the form.&lt;/div&gt;&lt;div&gt;User is redirected to home&lt;br&gt; &lt;/div&gt;" style="rounded=1;whiteSpace=wrap;html=1;" vertex="1" parent="WIyWlLk6GJQsqaUBKTNV-1">
          <mxGeometry x="440" y="200" width="120" height="90" as="geometry" />
        </mxCell>
        <mxCell id="FHP0kAgqDx-dFsbqrs1T-22" value="&lt;div&gt;main/index.html.erb&lt;/div&gt;&lt;div&gt;(is rendered)&lt;br&gt;&lt;/div&gt;" style="rounded=0;whiteSpace=wrap;html=1;" vertex="1" parent="WIyWlLk6GJQsqaUBKTNV-1">
          <mxGeometry x="600" y="215" width="120" height="60" as="geometry" />
        </mxCell>
        <mxCell id="FHP0kAgqDx-dFsbqrs1T-24" value="MVC actions that take place when a user creates an account" style="text;html=1;strokeColor=#000000;fillColor=none;align=center;verticalAlign=middle;whiteSpace=wrap;rounded=0;shadow=0;" vertex="1" parent="WIyWlLk6GJQsqaUBKTNV-1">
          <mxGeometry x="80" y="320" width="140" height="110" as="geometry" />
        </mxCell>
        <mxCell id="FHP0kAgqDx-dFsbqrs1T-25" value="" style="endArrow=none;html=1;rounded=0;" edge="1" parent="WIyWlLk6GJQsqaUBKTNV-1">
          <mxGeometry width="50" height="50" relative="1" as="geometry">
            <mxPoint x="730" y="180" as="sourcePoint" />
            <mxPoint x="60" y="180" as="targetPoint" />
            <Array as="points">
              <mxPoint x="410" y="180" />
            </Array>
          </mxGeometry>
        </mxCell>
        <mxCell id="FHP0kAgqDx-dFsbqrs1T-26" value="" style="endArrow=none;html=1;rounded=0;" edge="1" parent="WIyWlLk6GJQsqaUBKTNV-1">
          <mxGeometry width="50" height="50" relative="1" as="geometry">
            <mxPoint x="730" y="600" as="sourcePoint" />
            <mxPoint x="730" y="180" as="targetPoint" />
          </mxGeometry>
        </mxCell>
        <mxCell id="FHP0kAgqDx-dFsbqrs1T-27" value="" style="endArrow=none;html=1;rounded=0;" edge="1" parent="WIyWlLk6GJQsqaUBKTNV-1">
          <mxGeometry width="50" height="50" relative="1" as="geometry">
            <mxPoint x="730" y="600" as="sourcePoint" />
            <mxPoint x="58.75" y="600" as="targetPoint" />
          </mxGeometry>
        </mxCell>
        <mxCell id="FHP0kAgqDx-dFsbqrs1T-28" value="" style="endArrow=none;html=1;rounded=0;" edge="1" parent="WIyWlLk6GJQsqaUBKTNV-1">
          <mxGeometry width="50" height="50" relative="1" as="geometry">
            <mxPoint x="60" y="600" as="sourcePoint" />
            <mxPoint x="60" y="180" as="targetPoint" />
          </mxGeometry>
        </mxCell>
      </root>
    </mxGraphModel>
  </diagram>
</mxfile>
